{"title":"The Amazing Spider Man 2012 720P R6 Xvid AAC-bRaVo","uid":7635517,"size":1240035080,"categoryP":"video","categoryS":"hd___movies","magnet":"?xt=urn:btih:2206d8d6caeb5a056c188f7078cffea8bfbc3df2&amp;dn=The+Amazing+Spider+Man+2012+720P+R6+Xvid+AAC-bRaVo&amp;tr=udp%3A%2F%2Ftracker.openbittorrent.com%3A80&amp;tr=udp%3A%2F%2Fopen.demonii.com%3A1337&amp;tr=udp%3A%2F%2Ftracker.coppersurfer.tk%3A6969&amp;tr=udp%3A%2F%2Fexodus.desync.com%3A6969","seeders":0,"leechers":3,"uploader":"Gh0stNet","files":7,"time":1347633731,"description":"Format : RealMedia\nFile size : 1.15 GiB\nDuration : 2h 11mn\nOverall bit rate : 1 238 Kbps\nMovie name : FDcfzzx4 (1)\n\nVideo\nID : 0\nFormat : RealVideo 4\nCodec ID : RV40\nCodec ID/Info : Based on AVC (H.264), Real Player 9\nDuration : 2h 11mn\nBit rate : 1 110 Kbps\nWidth : 1 280 pixels\nHeight : 720 pixels\nDisplay aspect ratio : 16:9\nFrame rate : 23.976 fps\nBits/(Pixel*Frame) : 0.050\nStream size : 1.02 GiB (88%)\n\nAudio\nID : 1\nFormat : AAC\nFormat/Info : Advanced Audio Codec\nFormat profile : LC\nCodec ID : raac\nCodec ID/Info : Real Player 9\nDuration : 2h 11mn\nBit rate : 128 Kbps\nChannel(s) : 2 channels\nSampling rate : 44.1 KHz\nBit depth : 16 bits\nCompression mode : Lossy\nStream size : 120 MiB (10%)\n\n\n  screen shots: &lt;a href=&quot;\nhttp://img1.uploadscreenshot.com/images/main/9/25321572313.png&quot; rel=&quot;nofollow&quot; target=&quot;_NEW&quot;&gt;\nhttp://img1.uploadscreenshot.com/images/main/9/25321572313.png&lt;/a&gt; &lt;a href=&quot;\nhttp://img1.uploadscreenshot.com/images/main/9/25321572313.png&quot; rel=&quot;nofollow&quot; target=&quot;_NEW&quot;&gt;\nhttp://img1.uploadscreenshot.com/images/main/9/25321572313.png&lt;/a&gt; &lt;a href=&quot;\nhttp://img1.uploadscreenshot.com/images/main/9/25321572313.png&quot; rel=&quot;nofollow&quot; target=&quot;_NEW&quot;&gt;\nhttp://img1.uploadscreenshot.com/images/main/9/25321572313.png&lt;/a&gt; &lt;a href=&quot;\nhttp://img1.uploadscreenshot.com/images/main/9/25511231176.png&quot; rel=&quot;nofollow&quot; target=&quot;_NEW&quot;&gt;\nhttp://img1.uploadscreenshot.com/images/main/9/25511231176.png&lt;/a&gt; &lt;a href=&quot;\nhttp://img1.uploadscreenshot.com/images/main/9/25511231176.png&quot; rel=&quot;nofollow&quot; target=&quot;_NEW&quot;&gt;\nhttp://img1.uploadscreenshot.com/images/main/9/25511231176.png&lt;/a&gt; &lt;a href=&quot;\nhttp://img1.uploadscreenshot.com/images/main/9/25511231176.png&quot; rel=&quot;nofollow&quot; target=&quot;_NEW&quot;&gt;\nhttp://img1.uploadscreenshot.com/images/main/9/25511231176.png&lt;/a&gt;\n\n\nChinese,well hope someone syncs this to the english Line.\n\n2.Video has a watermark that appears and then disappears.\n\n3.NO sub.\nNice New source for Encoder! Thank you !","torrent":{"xt":"urn:btih:2206d8d6caeb5a056c188f7078cffea8bfbc3df2","amp;dn":"The+Amazing+Spider+Man+2012+720P+R6+Xvid+AAC-bRaVo","amp;tr":["udp%3A%2F%2Ftracker.openbittorrent.com%3A80","udp%3A%2F%2Fopen.demonii.com%3A1337","udp%3A%2F%2Ftracker.coppersurfer.tk%3A6969","udp%3A%2F%2Fexodus.desync.com%3A6969"],"infoHash":"2206d8d6caeb5a056c188f7078cffea8bfbc3df2","infoHashBuffer":{"type":"Buffer","data":[34,6,216,214,202,235,90,5,108,24,143,112,120,207,254,168,191,188,61,242]},"announce":[],"urlList":[]}}